<svg width="1024" height="768" viewBox="0 0 1024 768" fill="none" xmlns="http://www.w3.org/2000/svg">
<rect width="1024" height="768" fill="#262525"/>
<g clip-path="url(#clip0_0_3)">
<mask id="mask0_0_3" style="mask-type:luminance" maskUnits="userSpaceOnUse" x="0" y="0" width="1024" height="768">
<path d="M1024 0H0V768H1024V0Z" fill="white"/>
</mask>
<g mask="url(#mask0_0_3)">
<path d="M281.77 344.76L216.82 307.26L151.87 344.76V419.76L216.82 457.26L281.77 419.76M281.77 344.76V419.76M281.77 344.76L346.73 307.26L411.68 344.76V419.76L346.73 457.26L281.77 419.76M346.73 82.26L411.68 119.76V194.76L346.73 232.26L281.77 194.76V119.76L346.73 82.26ZM346.73 532.26L411.68 569.76V644.76L346.73 682.26L281.77 644.76V569.76L346.73 532.26Z" stroke="white" stroke-opacity="0.22" stroke-width="2"/>
<path d="M209.32 307.26C209.32 309.249 210.11 311.157 211.517 312.563C212.923 313.97 214.831 314.76 216.82 314.76C218.809 314.76 220.717 313.97 222.123 312.563C223.53 311.157 224.32 309.249 224.32 307.26C224.32 305.271 223.53 303.363 222.123 301.957C220.717 300.55 218.809 299.76 216.82 299.76C214.831 299.76 212.923 300.55 211.517 301.957C210.11 303.363 209.32 305.271 209.32 307.26ZM274.27 344.76C274.27 346.749 275.06 348.657 276.467 350.063C277.873 351.47 279.781 352.26 281.77 352.26C283.759 352.26 285.667 351.47 287.073 350.063C288.48 348.657 289.27 346.749 289.27 344.76C289.27 342.771 288.48 340.863 287.073 339.457C285.667 338.05 283.759 337.26 281.77 337.26C279.781 337.26 277.873 338.05 276.467 339.457C275.06 340.863 274.27 342.771 274.27 344.76ZM274.27 419.76C274.27 421.749 275.06 423.657 276.467 425.063C277.873 426.47 279.781 427.26 281.77 427.26C283.759 427.26 285.667 426.47 287.073 425.063C288.48 423.657 289.27 421.749 289.27 419.76C289.27 417.771 288.48 415.863 287.073 414.457C285.667 413.05 283.759 412.26 281.77 412.26C279.781 412.26 277.873 413.05 276.467 414.457C275.06 415.863 274.27 417.771 274.27 419.76ZM209.32 457.26C209.32 459.249 210.11 461.157 211.517 462.563C212.923 463.97 214.831 464.76 216.82 464.76C218.809 464.76 220.717 463.97 222.123 462.563C223.53 461.157 224.32 459.249 224.32 457.26C224.32 455.271 223.53 453.363 222.123 451.957C220.717 450.55 218.809 449.76 216.82 449.76C214.831 449.76 212.923 450.55 211.517 451.957C210.11 453.363 209.32 455.271 209.32 457.26ZM144.37 419.76C144.37 421.749 145.16 423.657 146.567 425.063C147.973 426.47 149.881 427.26 151.87 427.26C153.859 427.26 155.767 426.47 157.173 425.063C158.58 423.657 159.37 421.749 159.37 419.76C159.37 417.771 158.58 415.863 157.173 414.457C155.767 413.05 153.859 412.26 151.87 412.26C149.881 412.26 147.973 413.05 146.567 414.457C145.16 415.863 144.37 417.771 144.37 419.76ZM144.37 344.76C144.37 346.749 145.16 348.657 146.567 350.063C147.973 351.47 149.881 352.26 151.87 352.26C153.859 352.26 155.767 351.47 157.173 350.063C158.58 348.657 159.37 346.749 159.37 344.76C159.37 342.771 158.58 340.863 157.173 339.457C155.767 338.05 153.859 337.26 151.87 337.26C149.881 337.26 147.973 338.05 146.567 339.457C145.16 340.863 144.37 342.771 144.37 344.76ZM339.23 82.26C339.23 84.2491 340.02 86.1568 341.427 87.5633C342.833 88.9698 344.741 89.76 346.73 89.76C348.719 89.76 350.627 88.9698 352.033 87.5633C353.44 86.1568 354.23 84.2491 354.23 82.26C354.23 80.2709 353.44 78.3632 352.033 76.9567C350.627 75.5502 348.719 74.76 346.73 74.76C344.741 74.76 342.833 75.5502 341.427 76.9567C340.02 78.3632 339.23 80.2709 339.23 82.26ZM404.18 119.76C404.18 121.749 404.97 123.657 406.377 125.063C407.783 126.47 409.691 127.26 411.68 127.26C413.669 127.26 415.577 126.47 416.983 125.063C418.39 123.657 419.18 121.749 419.18 119.76C419.18 117.771 418.39 115.863 416.983 114.457C415.577 113.05 413.669 112.26 411.68 112.26C409.691 112.26 407.783 113.05 406.377 114.457C404.97 115.863 404.18 117.771 404.18 119.76ZM404.18 194.76C404.18 196.749 404.97 198.657 406.377 200.063C407.783 201.47 409.691 202.26 411.68 202.26C413.669 202.26 415.577 201.47 416.983 200.063C418.39 198.657 419.18 196.749 419.18 194.76C419.18 192.771 418.39 190.863 416.983 189.457C415.577 188.05 413.669 187.26 411.68 187.26C409.691 187.26 407.783 188.05 406.377 189.457C404.97 190.863 404.18 192.771 404.18 194.76ZM339.23 232.26C339.23 234.249 340.02 236.157 341.427 237.563C342.833 238.97 344.741 239.76 346.73 239.76C348.719 239.76 350.627 238.97 352.033 237.563C353.44 236.157 354.23 234.249 354.23 232.26C354.23 230.271 353.44 228.363 352.033 226.957C350.627 225.55 348.719 224.76 346.73 224.76C344.741 224.76 342.833 225.55 341.427 226.957C340.02 228.363 339.23 230.271 339.23 232.26ZM274.27 194.76C274.27 196.749 275.06 198.657 276.467 200.063C277.873 201.47 279.781 202.26 281.77 202.26C283.759 202.26 285.667 201.47 287.073 200.063C288.48 198.657 289.27 196.749 289.27 194.76C289.27 192.771 288.48 190.863 287.073 189.457C285.667 188.05 283.759 187.26 281.77 187.26C279.781 187.26 277.873 188.05 276.467 189.457C275.06 190.863 274.27 192.771 274.27 194.76ZM274.27 119.76C274.27 121.749 275.06 123.657 276.467 125.063C277.873 126.47 279.781 127.26 281.77 127.26C283.759 127.26 285.667 126.47 287.073 125.063C288.48 123.657 289.27 121.749 289.27 119.76C289.27 117.771 288.48 115.863 287.073 114.457C285.667 113.05 283.759 112.26 281.77 112.26C279.781 112.26 277.873 113.05 276.467 114.457C275.06 115.863 274.27 117.771 274.27 119.76ZM339.23 307.26C339.23 309.249 340.02 311.157 341.427 312.563C342.833 313.97 344.741 314.76 346.73 314.76C348.719 314.76 350.627 313.97 352.033 312.563C353.44 311.157 354.23 309.249 354.23 307.26C354.23 305.271 353.44 303.363 352.033 301.957C350.627 300.55 348.719 299.76 346.73 299.76C344.741 299.76 342.833 300.55 341.427 301.957C340.02 303.363 339.23 305.271 339.23 307.26ZM404.18 344.76C404.18 346.749 404.97 348.657 406.377 350.063C407.783 351.47 409.691 352.26 411.68 352.26C413.669 352.26 415.577 351.47 416.983 350.063C418.39 348.657 419.18 346.749 419.18 344.76C419.18 342.771 418.39 340.863 416.983 339.457C415.577 338.05 413.669 337.26 411.68 337.26C409.691 337.26 407.783 338.05 406.377 339.457C404.97 340.863 404.18 342.771 404.18 344.76ZM404.18 419.76C404.18 421.749 404.97 423.657 406.377 425.063C407.783 426.47 409.691 427.26 411.68 427.26C413.669 427.26 415.577 426.47 416.983 425.063C418.39 423.657 419.18 421.749 419.18 419.76C419.18 417.771 418.39 415.863 416.983 414.457C415.577 413.05 413.669 412.26 411.68 412.26C409.691 412.26 407.783 413.05 406.377 414.457C404.97 415.863 404.18 417.771 404.18 419.76ZM339.23 457.26C339.23 459.249 340.02 461.157 341.427 462.563C342.833 463.97 344.741 464.76 346.73 464.76C348.719 464.76 350.627 463.97 352.033 462.563C353.44 461.157 354.23 459.249 354.23 457.26C354.23 455.271 353.44 453.363 352.033 451.957C350.627 450.55 348.719 449.76 346.73 449.76C344.741 449.76 342.833 450.55 341.427 451.957C340.02 453.363 339.23 455.271 339.23 457.26ZM339.23 532.26C339.23 534.249 340.02 536.157 341.427 537.563C342.833 538.97 344.741 539.76 346.73 539.76C348.719 539.76 350.627 538.97 352.033 537.563C353.44 536.157 354.23 534.249 354.23 532.26C354.23 530.271 353.44 528.363 352.033 526.957C350.627 525.55 348.719 524.76 346.73 524.76C344.741 524.76 342.833 525.55 341.427 526.957C340.02 528.363 339.23 530.271 339.23 532.26ZM404.18 569.76C404.18 571.749 404.97 573.657 406.377 575.063C407.783 576.47 409.691 577.26 411.68 577.26C413.669 577.26 415.577 576.47 416.983 575.063C418.39 573.657 419.18 571.749 419.18 569.76C419.18 567.771 418.39 565.863 416.983 564.457C415.577 563.05 413.669 562.26 411.68 562.26C409.691 562.26 407.783 563.05 406.377 564.457C404.97 565.863 404.18 567.771 404.18 569.76ZM404.18 644.76C404.18 646.749 404.97 648.657 406.377 650.063C407.783 651.47 409.691 652.26 411.68 652.26C413.669 652.26 415.577 651.47 416.983 650.063C418.39 648.657 419.18 646.749 419.18 644.76C419.18 642.771 418.39 640.863 416.983 639.457C415.577 638.05 413.669 637.26 411.68 637.26C409.691 637.26 407.783 638.05 406.377 639.457C404.97 640.863 404.18 642.771 404.18 644.76ZM339.23 682.26C339.23 684.249 340.02 686.157 341.427 687.563C342.833 688.97 344.741 689.76 346.73 689.76C348.719 689.76 350.627 688.97 352.033 687.563C353.44 686.157 354.23 684.249 354.23 682.26C354.23 680.271 353.44 678.363 352.033 676.957C350.627 675.55 348.719 674.76 346.73 674.76C344.741 674.76 342.833 675.55 341.427 676.957C340.02 678.363 339.23 680.271 339.23 682.26ZM274.27 644.76C274.27 646.749 275.06 648.657 276.467 650.063C277.873 651.47 279.781 652.26 281.77 652.26C283.759 652.26 285.667 651.47 287.073 650.063C288.48 648.657 289.27 646.749 289.27 644.76C289.27 642.771 288.48 640.863 287.073 639.457C285.667 638.05 283.759 637.26 281.77 637.26C279.781 637.26 277.873 638.05 276.467 639.457C275.06 640.863 274.27 642.771 274.27 644.76ZM274.27 569.76C274.27 571.749 275.06 573.657 276.467 575.063C277.873 576.47 279.781 577.26 281.77 577.26C283.759 577.26 285.667 576.47 287.073 575.063C288.48 573.657 289.27 571.749 289.27 569.76C289.27 567.771 288.48 565.863 287.073 564.457C285.667 563.05 283.759 562.26 281.77 562.26C279.781 562.26 277.873 563.05 276.467 564.457C275.06 565.863 274.27 567.771 274.27 569.76Z" fill="white" fill-opacity="0.22"/>
<path d="M79.54 68.77V21.77L38.84 -1.73L-1.85999 21.77V68.77L38.84 92.27M79.54 68.77L38.84 92.27M79.54 68.77L120.25 92.27V139.27L79.54 162.77M38.84 92.27V139.27M79.54 162.77L38.84 139.27M79.54 162.77V209.77M38.84 139.27L-1.85999 162.77V209.77L38.84 233.27M79.54 209.77L38.84 233.27M79.54 209.77L120.25 233.27M38.84 233.27V280.27M120.25 233.27V280.27M120.25 233.27L160.95 209.77L201.66 233.27V280.27M120.25 280.27L79.54 303.77M120.25 280.27L160.95 303.77M79.54 303.77L38.84 280.27M79.54 303.77V350.77M38.84 280.27L-1.85999 303.77V350.77L38.84 374.27L79.54 350.77M79.54 350.77L120.25 374.27L160.95 350.77M201.66 280.27L160.95 303.77M201.66 280.27L242.36 303.77V350.77M160.95 303.77V350.77M160.95 350.77L201.66 374.27M242.36 350.77L201.66 374.27M242.36 350.77L283.07 374.27V421.27M201.66 374.27V421.27M283.07 421.27L242.36 444.77M283.07 421.27L323.77 444.77V491.77M242.36 444.77L201.66 421.27M242.36 444.77V491.77M201.66 421.27L160.95 444.77V491.77L201.66 515.27L242.36 491.77M242.36 491.77L283.07 515.27M242.36 726.77L201.66 703.27L160.95 726.77V773.77L201.66 797.27L242.36 773.77M242.36 726.77V773.77M242.36 726.77L283.07 703.27M242.36 773.77L283.07 797.27L323.77 773.77V726.77M323.77 21.77L283.07 -1.73L242.36 21.77V68.77L283.07 92.27L323.77 68.77M323.77 21.77V68.77M323.77 21.77L364.47 -1.73L405.18 21.77V68.77L364.47 92.27L323.77 68.77M323.77 491.77L283.07 515.27M323.77 491.77L364.47 515.27V562.27M283.07 515.27V562.27L323.77 585.77M364.47 562.27L323.77 585.77M364.47 562.27L405.18 585.77V632.77L364.47 656.27M323.77 585.77V632.77M323.77 632.77L364.47 656.27M323.77 632.77L283.07 656.27V703.27M364.47 656.27V703.27L323.77 726.77M323.77 726.77L283.07 703.27M445.88 233.27L405.18 209.77L364.47 233.27V280.27L405.18 303.77L445.88 280.27M445.88 233.27V280.27M445.88 233.27L486.59 209.77L527.29 233.27V280.27L486.59 303.77L445.88 280.27M527.29 374.27L486.59 350.77L445.88 374.27V421.27L486.59 444.77L527.29 421.27M527.29 374.27V421.27M527.29 374.27L568 350.77M527.29 421.27L568 444.77M568 350.77L608.7 374.27M568 350.77V303.77L608.7 280.27L649.41 303.77V350.77L608.7 374.27M608.7 374.27V421.27M608.7 421.27L568 444.77M608.7 421.27L649.41 444.77M568 444.77V491.77M568 491.77L608.7 515.27M568 491.77L527.29 515.27V562.27M608.7 515.27V562.27L568 585.77M608.7 515.27L649.41 491.77M568 585.77L527.29 562.27M568 585.77V632.77L527.29 656.27L486.59 632.77V585.77L527.29 562.27M649.41 444.77V491.77M649.41 444.77L690.11 421.27M649.41 491.77L690.11 515.27L730.81 491.77M690.11 703.27V656.27L649.41 632.77L608.7 656.27V703.27L649.41 726.77M690.11 703.27L649.41 726.77M690.11 703.27L730.81 726.77V773.77M649.41 726.77V773.77L690.11 797.27M771.52 233.27L730.81 209.77L690.11 233.27V280.27L730.81 303.77L771.52 280.27M771.52 233.27V280.27M771.52 233.27L812.22 209.77L852.93 233.27V280.27L812.22 303.77L771.52 280.27M771.52 421.27V374.27L730.81 350.77L690.11 374.27V421.27M771.52 421.27L730.81 444.77M771.52 421.27L812.22 444.77V491.77L771.52 515.27L730.81 491.77M730.81 444.77L690.11 421.27M730.81 444.77V491.77M730.81 773.77L690.11 797.27M730.81 773.77L771.52 797.27V844.27L730.81 867.77L690.11 844.27V797.27M812.22 632.77L852.93 656.27M812.22 632.77L771.52 656.27V703.27L812.22 726.77M812.22 632.77V585.77L852.93 562.27L893.63 585.77V632.77M852.93 656.27V703.27M852.93 656.27L893.63 632.77M852.93 703.27L812.22 726.77M852.93 703.27L893.63 726.77M812.22 726.77V773.77L852.93 797.27L893.63 773.77V726.77M893.63 632.77L934.34 656.27V703.27L893.63 726.77M975.04 68.77L1015.74 92.27M975.04 68.77L934.34 92.27V139.27L975.04 162.77L1015.74 139.27V92.27M975.04 68.77V21.77L1015.74 -1.73L1056.45 21.77V68.77L1015.74 92.27M1015.74 421.27V374.27L975.04 350.77L934.34 374.27V421.27L975.04 444.77M1015.74 421.27L975.04 444.77M1015.74 421.27L1056.45 444.77V491.77L1015.74 515.27L975.04 491.77V444.77M38.84 421.27L79.54 444.77V491.77L38.84 515.27L-1.85999 491.77V444.77L38.84 421.27ZM38.84 703.27L79.54 726.77V773.77L38.84 797.27L-1.85999 773.77V726.77L38.84 703.27ZM201.66 562.27L242.36 585.77V632.77L201.66 656.27L160.95 632.77V585.77L201.66 562.27ZM486.59 68.77L527.29 92.27V139.27L486.59 162.77L445.88 139.27V92.27L486.59 68.77ZM445.88 703.27L486.59 726.77V773.77L445.88 797.27L405.18 773.77V726.77L445.88 703.27ZM568 773.77L608.7 797.27V844.27L568 867.77L527.29 844.27V797.27L568 773.77ZM608.7 139.27L649.41 162.77V209.77L608.7 233.27L568 209.77V162.77L608.7 139.27ZM730.81 68.77L771.52 92.27V139.27L730.81 162.77L690.11 139.27V92.27L730.81 68.77ZM975.04 209.77L1015.74 233.27V280.27L975.04 303.77L934.34 280.27V233.27L975.04 209.77ZM1015.74 703.27L1056.45 726.77V773.77L1015.74 797.27L975.04 773.77V726.77L1015.74 703.27Z" stroke="#ECECEC" stroke-opacity="0.12" stroke-width="2"/>
</g>
</g>
<defs>
<clipPath id="clip0_0_3">
<rect width="1024" height="768" fill="white"/>
</clipPath>
</defs>
</svg>
